<?xml version="1.0" encoding="utf-8"?>
<!DOCTYPE svg PUBLIC "-//W3C//DTD SVG 1.1//EN" "http://www.w3.org/Graphics/SVG/1.1/DTD/svg11.dtd">
<svg version="1.1" id="Layer_1" xmlns="http://www.w3.org/2000/svg" xmlns:xlink="http://www.w3.org/1999/xlink" x="0px" y="0px"
	 viewBox="0 0 430.9 325.6" enable-background="new 0 0 430.9 325.6" xml:space="preserve">
	  <style type="text/css">
	  <![CDATA[
#i{-webkit-animation:iBounce cubic-bezier(0.01, 0.74, 0.51, 1.29) 450ms 1 forwards;animation:iBounce cubic-bezier(0.01, 0.74, 0.51, 1.29) 450ms 1 forwards}@-webkit-keyframes iBounce{0%{-webkit-transform:translateY(-150%);transform:translateY(-150%)}100%{-webkit-transform:translateY(0%);transform:translateY(0%)}}@keyframes iBounce{0%{-webkit-transform:translateY(-150%);transform:translateY(-150%)}100%{-webkit-transform:translateY(0%);transform:translateY(0%)}}

	  ]]>
	  </style>
<g>
	<path fill="#FFFFFF" d="M81.5,321.6c0,2.4-1.3,3.6-3.9,3.6c-1.3,0-2.4-0.6-3.3-1.7l-48.1-67.8L8,277.8v43.8c0,2.4-1.3,3.6-4,3.6
		c-2.6,0-3.9-1.2-3.9-3.6V205c0-2.4,1.3-3.6,3.9-3.6c2.7,0,4,1.2,4,3.6v61.1l53.1-63.2c0.9-1,1.9-1.5,3.1-1.5c1,0,1.9,0.4,2.8,1.2
		c0.9,0.8,1.3,1.6,1.3,2.6c0,0.7-0.3,1.4-0.8,2.1L31.3,250l49.6,69.6C81.3,320.2,81.5,320.9,81.5,321.6z"/>
	<path fill="#FFFFFF" d="M99.3,321.6c0,2.4-1.3,3.6-3.9,3.6c-2.6,0-3.9-1.2-3.9-3.6v-73.9c0-2.4,1.3-3.6,3.9-3.6
		c2.6,0,3.9,1.2,3.9,3.6V321.6z"/>
	<path fill="#FFFFFF" d="M183.9,321.6c0,2.4-1.3,3.6-3.9,3.6c-2.6,0-3.9-1.2-3.9-3.6v-43.2c0-18.2-8.9-27.3-26.7-27.3
		c-9.6,0-17.1,4.3-22.5,13v57.4c0,2.4-1.3,3.6-3.9,3.6c-2.6,0-3.9-1.2-3.9-3.6v-73.9c0-2.4,1.3-3.6,3.9-3.6c2.6,0,3.9,1.2,3.9,3.6v6
		c6.9-6.7,14.4-10,22.5-10c11.1,0,19.6,3,25.6,9.1c6,6,9,14.6,9,25.6V321.6z"/>
	<path fill="#FFFFFF" d="M276.9,275.4c0,2.3-1.3,3.4-3.9,3.4h-66.7c-0.3,2.3-0.5,4.3-0.5,6c0,9.1,3.2,16.9,9.6,23.6
		c6.4,6.7,14.2,10,23.2,10c9.3,0,17.1-3.5,23.2-10.5c0.7-1,1.8-2.5,3.3-4.5c1-1.3,2.1-2,3.3-2c2.7,0,4.1,1.2,4.1,3.6
		c0,0.7-0.2,1.3-0.5,1.8c-7.7,12.5-18.7,18.8-33.2,18.8c-11.1,0-20.7-4-28.8-12c-8.1-8-12.2-17.6-12.2-28.6
		c0-11.6,3.8-21.4,11.4-29.3c7.6-7.9,17.2-11.9,28.7-11.9c9.5,0,17.7,2.8,24.6,8.4c7,5.6,11.7,13,14.2,22.2
		C276.8,274.8,276.9,275.1,276.9,275.4z M267.7,271.5c-6-13.7-15.8-20.5-29.4-20.5c-6.7,0-12.7,1.9-18.1,5.6
		c-5.4,3.7-9.4,8.7-12.1,14.9H267.7z"/>
	<path fill="#FFFFFF" d="M329.7,319.8c0,1.8-2,3.3-6.1,4.5c-3.1,1-6,1.4-8.7,1.4c-7.6,0-13.2-3.4-17-10.1
		c-3.2-5.4-4.8-12.2-4.8-20.4v-43.3h-6.6c-2.6,0-3.9-1.2-3.9-3.6c0-2.4,1.3-3.6,3.9-3.6h6.6v-29.1c0-2.4,1.3-3.6,3.9-3.6
		c2.6,0,3.9,1.2,3.9,3.6v29.1h15.4c2.6,0,3.9,1.2,3.9,3.6c0,2.4-1.3,3.6-3.9,3.6H301v43.3c0,15.4,4.7,23.1,14.1,23.1
		c2.6,0,5.7-0.6,9.2-1.9c0.6-0.2,1.2-0.3,1.7-0.3C328.5,316,329.7,317.2,329.7,319.8z"/>
	<path id="i" fill="#F66A48" d="M354.6,222.4c0,2.8-1,5.3-3,7.3c-2,2-4.4,3-7.2,3c-2.8,0-5.3-1-7.3-3c-2-2-3-4.5-3-7.3c0-2.8,1-5.3,3-7.3
		c2-2,4.5-3,7.3-3c2.8,0,5.2,1,7.2,3C353.6,217.2,354.6,219.6,354.6,222.4z"/>
	<path fill="#FFFFFF" d="M348.4,321.6c0,2.4-1.3,3.6-3.9,3.6c-2.6,0-3.9-1.2-3.9-3.6v-73.9c0-2.4,1.3-3.6,3.9-3.6
		c2.6,0,3.9,1.2,3.9,3.6V321.6z"/>
	<path fill="#FFFFFF" d="M430.9,311.5c0,0.8-0.4,1.6-1.3,2.5c-7.8,7.7-16.6,11.6-26.5,11.6c-11,0-20.5-4.2-28.5-12.7
		c-7.8-8.2-11.7-17.9-11.7-29c0-11,3.9-20.5,11.8-28.4c7.9-7.9,17.3-11.8,28.3-11.8c9.2,0,17,2.6,23.3,7.7c1,0.8,1.5,1.7,1.5,2.6
		c0,2.5-1.3,3.8-3.9,3.8c-0.8,0-1.6-0.3-2.4-0.8c-6.4-4-12.6-6-18.6-6c-9.1,0-16.7,3.2-22.9,9.6c-6.2,6.4-9.3,14.2-9.3,23.2
		s3.1,17,9.2,23.8c6.3,7,14,10.5,23,10.5c6.2,0,13.2-3.1,21.1-9.3c0.9-0.7,1.8-1,2.8-1C429.6,307.9,430.9,309.1,430.9,311.5z"/>
</g>
<g>
	<path fill="#F6B54D" d="M94.5,234.9c-0.8,0-1.5-0.6-1.5-1.4l0,0c0-0.8,0.7-1.4,1.5-1.4l0,0c0.8,0,1.4,0.7,1.4,1.6v0
		C96,234.4,95.4,234.9,94.5,234.9L94.5,234.9C94.5,234.9,94.5,234.9,94.5,234.9z M94.6,228.9c-0.8,0-1.6-0.5-1.6-1.4l0,0
		c0,0,0,0,0,0l0,0c0-0.8,0.8-1.5,1.6-1.5l0,0c0.8,0,1.5,0.6,1.5,1.5l0,0C96.1,228.3,95.5,228.9,94.6,228.9L94.6,228.9
		C94.7,228.9,94.7,228.9,94.6,228.9z M94.8,222.9c-0.8,0-1.5-1-1.4-1l0,0c0,0,0,0,0,0l0,0c0,0,0.7-1.7,1.6-1.6l0,0
		c0.8,0,1.5,0.5,1.4,1.4l0,0C96.3,222.4,95.7,222.9,94.8,222.9L94.8,222.9C94.9,222.9,94.8,222.9,94.8,222.9z M95.1,216.9
		c-0.8,0-1.5-0.7-1.4-1.5l0,0l0,0l0,0c0-0.8,0.7-1.4,1.6-1.4l0,0c0.8,0,1.5,0.7,1.4,1.5l0,0C96.6,216.3,95.9,216.9,95.1,216.9
		L95.1,216.9C95.1,216.9,95.1,216.9,95.1,216.9z M95.4,210.9c-0.8,0-1.4-0.6-1.4-1.4l0,0c0,0,0,0,0,0l0,0c0-0.8,0.8-1.5,1.6-1.4l0,0
		c0.8,0.1,1.5,0.7,1.4,1.5l0,0C96.9,210.3,96.3,210.9,95.4,210.9L95.4,210.9C95.4,210.9,95.4,210.9,95.4,210.9z M95.8,204.9
		c-0.8,0-1.5-0.7-1.4-1.5l0,0c0.1-0.8,0.8-1.4,1.6-1.3l0,0c0.8,0.1,1.5,0.7,1.4,1.5l0,0c-0.1,0.8-0.7,1.3-1.5,1.3l0,0
		C95.8,204.9,95.8,204.9,95.8,204.9z M294.5,201.3L294.5,201.3c-0.1-0.8,0.6-1.7,1.4-1.7l0,0c0.8-0.1,1.5,0.7,1.6,1.5l0,0l0,0l0,0
		c0.1,0.8-0.5,1.8-1.4,1.8l0,0c0,0-0.1,0-0.1,0l0,0C295.3,202.9,294.6,202.1,294.5,201.3z M96.2,198.9c-0.8,0-1.4-0.7-1.4-1.5l0,0
		c0.1-0.8,0.8-1.4,1.6-1.3l0,0c0.8,0.1,1.4,0.7,1.4,1.5l0,0c-0.1,0.8-0.7,1.3-1.5,1.3l0,0C96.3,198.9,96.2,198.9,96.2,198.9z
		 M294.1,195.3c-0.1-0.8,0.5-1.7,1.4-1.7l0,0c0.8-0.1,1.6,0.7,1.6,1.5l0,0l0,0l0,0c0.1,0.8-0.5,1.8-1.4,1.8l0,0c0,0-0.1,0-0.1,0l0,0
		C294.8,196.9,294.1,196.1,294.1,195.3z M96.7,192.9c-0.8,0-1.7-0.6-1.7-1.4l0,0c0,0,0,0,0,0l0,0c0-0.8,1-1.4,1.8-1.3l0,0
		c0.8,0.1,1.5,0.7,1.4,1.5l0,0c-0.1,0.8-0.6,1.2-1.4,1.2l0,0C96.8,192.9,96.8,192.9,96.7,192.9z M294,189.1L294,189.1
		c-1-0.8,0.5-1.5,1.4-1.6l0,0c0.8-0.1,0.6,0.5,1.6,1.3l0,0c0,0,0,0,0,0l0,0c0,0.8-0.8,1.6-1.6,1.6l0,0c0,0,0,0,0,0l0,0
		C294.6,190.5,294,189.9,294,189.1z M97.3,187.1c-0.8-0.1-1.4-0.8-1.3-1.7l0,0c0.1-0.8,0.8-1.4,1.6-1.3l0,0c0.8,0.1,1.4,0.8,1.3,1.6
		l0,0c-0.1,0.8-0.7,1.3-1.5,1.3l0,0C97.4,187.1,97.3,187.1,97.3,187.1z M292.9,183.2c-0.1-0.8,0.5-1.6,1.3-1.6l0,0
		c0.8-0.1,1.6,0.5,1.6,1.3l0,0c0.1,0.8-0.5,1.6-1.3,1.6l0,0c0,0-0.1,0-0.2,0l0,0C293.6,184.5,293,183.9,292.9,183.2z M97.9,181.1
		c-0.8-0.1-1.4-0.8-1.3-1.7l0,0c0.1-0.8,0.8-1.4,1.7-1.3l0,0c0.8,0.1,1.4,0.8,1.3,1.7l0,0c-0.1,0.8-0.7,1.3-1.5,1.3l0,0
		C98,181.2,98,181.1,97.9,181.1z M292.2,177.2c-0.1-0.8,0.5-1.6,1.3-1.7l0,0c0.8-0.1,1.6,0.5,1.7,1.3l0,0c0.1,0.8-0.5,1.6-1.3,1.7
		l0,0c-0.1,0-0.1,0-0.2,0l0,0C293,178.5,292.3,178,292.2,177.2z M98.6,175.2c-0.8-0.1-1.4-0.9-1.3-1.7l0,0c0.1-0.8,0.9-1.4,1.7-1.3
		l0,0c0.8,0.1,1.4,0.9,1.3,1.7l0,0c-0.1,0.8-0.7,1.3-1.5,1.3l0,0C98.7,175.2,98.7,175.2,98.6,175.2z M291.5,171.3
		c-0.1-0.8,0.5-1.6,1.3-1.7l0,0c0.8-0.1,1.6,0.5,1.7,1.3l0,0c0.1,0.8-0.5,1.6-1.3,1.7l0,0c-0.1,0-0.1,0-0.2,0l0,0
		C292.2,172.6,291.6,172,291.5,171.3z M99.4,169.2c-0.8-0.1-1.4-0.9-1.3-1.7l0,0c0.1-0.8,0.9-1.4,1.7-1.3l0,0
		c0.8,0.1,1.4,0.9,1.3,1.7l0,0c-0.1,0.8-0.8,1.3-1.5,1.3l0,0C99.5,169.2,99.5,169.2,99.4,169.2z M290.7,165.4
		c-0.1-0.8,0.5-1.6,1.3-1.7l0,0c0.8-0.1,1.6,0.4,1.7,1.3l0,0c0.1,0.8-0.5,1.6-1.3,1.7l0,0c-0.1,0-0.2,0-0.2,0l0,0
		C291.4,166.6,290.8,166.1,290.7,165.4z M100.2,163.3c-0.8-0.1-1.4-0.9-1.3-1.7l0,0c0.1-0.8,0.9-1.4,1.7-1.3l0,0
		c0.8,0.1,1.4,0.9,1.3,1.7l0,0c-0.1,0.8-0.8,1.3-1.5,1.3l0,0C100.4,163.3,100.3,163.3,100.2,163.3z M289.8,159.4
		c-0.1-0.8,0.4-1.6,1.2-1.7l0,0c0.8-0.1,1.6,0.4,1.7,1.3l0,0c0.1,0.8-0.4,1.6-1.2,1.7l0,0c-0.1,0-0.2,0-0.2,0l0,0
		C290.5,160.7,289.9,160.2,289.8,159.4z M101.1,157.4c-0.8-0.1-1.4-0.9-1.2-1.7l0,0c0.1-0.8,0.9-1.4,1.7-1.2l0,0
		c0.8,0.1,1.4,0.9,1.2,1.7l0,0c-0.1,0.7-0.8,1.3-1.5,1.3l0,0C101.3,157.4,101.2,157.4,101.1,157.4z M288.8,153.5
		c-0.1-0.8,0.4-1.6,1.2-1.7l0,0c0.8-0.1,1.6,0.4,1.7,1.2l0,0l0,0l0,0c0.1,0.8-0.4,1.6-1.2,1.7l0,0c-0.1,0-0.2,0-0.2,0l0,0
		C289.6,154.8,288.9,154.3,288.8,153.5z M102.1,151.4c-0.8-0.1-1.4-0.9-1.2-1.7l0,0c0.1-0.8,0.9-1.4,1.7-1.2l0,0
		c0.8,0.1,1.4,0.9,1.2,1.7l0,0c-0.1,0.7-0.8,1.2-1.5,1.2l0,0C102.3,151.5,102.2,151.5,102.1,151.4z M287.8,147.6
		c-0.1-0.8,0.4-1.6,1.2-1.7l0,0c0.8-0.1,1.6,0.4,1.8,1.2l0,0c0.1,0.8-0.4,1.6-1.2,1.8l0,0c-0.1,0-0.2,0-0.3,0l0,0
		C288.5,148.9,287.9,148.4,287.8,147.6z M103.2,145.5c-0.8-0.2-1.4-0.9-1.2-1.8l0,0c0.2-0.8,0.9-1.3,1.8-1.2l0,0
		c0.8,0.1,1.3,0.9,1.2,1.8l0,0c-0.1,0.7-0.8,1.2-1.5,1.2l0,0C103.4,145.6,103.3,145.5,103.2,145.5z M287,141.8L287,141.8
		c0-0.8,0.2-1.6,1-1.8l0,0c0.8-0.2,1.5,0.4,1.7,1.2l0,0c0.2,0.8-0.4,1.6-1.2,1.8l0,0c-0.1,0,0,0-0.1,0l0,0
		C287.6,143,287,142.5,287,141.8z M104.3,139.6c-0.8-0.2-1.3-1-1.2-1.8l0,0c0.2-0.8,1-1.3,1.8-1.2l0,0c0.8,0.2,1.3,1,1.2,1.8l0,0
		c-0.1,0.7-0.8,1.2-1.5,1.2l0,0C104.5,139.7,104.4,139.7,104.3,139.6z M285.5,135.9c-0.2-0.8,0.4-1.6,1.2-1.8l0,0
		c0.8-0.2,1.6,0.4,1.8,1.2l0,0c0.2,0.8-0.4,1.6-1.2,1.8l0,0c-0.1,0-0.2,0-0.3,0l0,0C286.2,137.1,285.6,136.6,285.5,135.9z
		 M105.5,133.8c-0.8-0.2-1.3-1-1.1-1.8l0,0c0.2-0.8,1-1.2,1.8-1l0,0c0.8,0.2,1.3,0.9,1.1,1.9h0c-0.2,0-0.8,1.1-1.5,1.1l0,0
		C105.8,133.9,105.7,133.8,105.5,133.8z M284.2,129.9L284.2,129.9c-0.2-1,0.3-1.5,1.1-1.7l0,0c0.8-0.2,1.6,0.4,1.8,1.2l0,0l0,0l0,0
		c0.2,0.8-0.3,1.6-1.1,1.8l0,0c-0.1,0-0.2-0.1-0.3-0.1l0,0C285,131.1,284.4,130.9,284.2,129.9z M106.8,127.9c-0.8-0.2-1.3-1-1.1-1.8
		l0,0c0.2-0.8,1-1.3,1.8-1.1l0,0c0.8,0.2,1.3,1,1.1,1.8l0,0c-0.2,0.7-0.8,1.2-1.5,1.2l0,0C107.1,127.9,107,127.9,106.8,127.9z
		 M282.9,123.9L282.9,123.9c-0.2,0,0.4-1.4,1.2-1.6l0,0c0.8-0.2,1.9,0.5,1.9,1.3l0,0c0,0,0,0,0,0l0,0c0,0.8-0.4,1.6-1.2,1.8l0,0
		c-0.1,0-0.3-0.1-0.4-0.1l0,0C283.7,125.2,283,124.9,282.9,123.9z M108.2,122.1c-0.8-0.2-1.3-1-1.1-1.8l0,0c0.2-0.8,1-1.3,1.8-1.1
		l0,0c0.8,0.2,1.3,1,1.1,1.8l0,0c-0.2,0.7-0.8,1.1-1.5,1.1l0,0C108.5,122.1,108.3,122.1,108.2,122.1z M281.4,118.4
		c-0.2-0.8,0.3-1.6,1.1-1.8l0,0c0.8-0.2,1.6,0.3,1.8,1.1l0,0c0.2,0.8-0.3,1.6-1.1,1.8l0,0c-0.1,0-0.2,0.1-0.4,0.1l0,0
		C282.2,119.6,281.6,119.1,281.4,118.4z M109.7,116.2c-0.8-0.2-1.3-1-1.1-1.8l0,0c0.2-0.8,1-1.3,1.8-1.1l0,0c0.8,0.2,1.3,1,1.1,1.8
		l0,0c-0.2,0.7-0.8,1.1-1.5,1.1l0,0C110,116.3,109.8,116.3,109.7,116.2z M279.9,112.7c-0.2-0.8,0.2-1.6,1-1.8l0,0
		c0.8-0.2,1.6,0.2,1.8,1l0,0c0.2,0.8-0.2,1.6-1,1.8l0,0c-0.1,0-0.3,0.1-0.4,0.1l0,0C280.7,113.8,280.1,113.3,279.9,112.7z
		 M111.2,110.5c-0.8-0.2-1.3-1.1-1-1.9l0,0c0.2-0.8,1.1-1.3,1.9-1l0,0c0.8,0.2,1.3,1,1,1.9l0,0c-0.2,0.7-0.8,1.1-1.4,1.1l0,0
		C111.5,110.5,111.4,110.5,111.2,110.5z M278.3,106.9L278.3,106.9c-0.2-0.8,0.2-1.6,1-1.9l0,0c0.8-0.2,1.6,0.2,1.9,1l0,0
		c0.2,0.8-0.2,1.6-1,1.9l0,0c-0.1,0-0.3,0.1-0.4,0.1l0,0C279.1,108,278.5,107.6,278.3,106.9z M112.9,104.7c-0.8-0.2-1.2-0.8-1-1.8
		l0,0c0,0,0,0,0,0l0,0c0.2,0,1.1-1.3,1.9-1l0,0c0.8,0.2,1.2,1.1,1,1.9l0,0c-0.2,0.6-0.8,1.1-1.4,1.1l0,0
		C113.2,104.8,113,104.7,112.9,104.7z M276.6,100.9L276.6,100.9c-0.2,0,0.2-1.5,1-1.7l0,0c0.8-0.2,1.6,0.3,1.9,1.1l0,0
		c0.2,0.8-0.2,1.7-1,1.9l0,0c-0.2,0-0.3-0.1-0.4-0.1l0,0C277.4,102.1,276.8,101.9,276.6,100.9z M114.7,98.9c-0.8-0.2-1.2-1.1-1-1.9
		l0,0c0.2-0.8,1.1-1.2,1.9-1l0,0c0.8,0.2,1.2,1.1,1,1.9l0,0c-0.2,0.6-0.8,1-1.4,1l0,0C115,99,114.8,99,114.7,98.9z M274.8,95.5
		c-0.3-0.8,0.2-1.6,1-1.9l0,0c0.8-0.3,1.6,0.2,1.9,1l0,0c0.3,0.8-0.2,1.6-1,1.9l0,0c-0.2,0.1-0.3,0.1-0.5,0.1l0,0
		C275.6,96.5,275,96.1,274.8,95.5z M116.5,93.2c-0.8-0.3-1.2-1.1-0.9-1.9l0,0c0.3-0.8,1.1-1.2,1.9-0.9l0,0c0.8,0.3,1.2,1.1,0.9,1.9
		l0,0c-0.2,0.6-0.8,1-1.4,1l0,0C116.8,93.3,116.7,93.3,116.5,93.2z M272.9,89.8c-0.3-0.8,0.1-1.6,0.9-1.9l0,0
		c0.8-0.3,1.6,0.1,1.9,0.9l0,0c0.3,0.8-0.2,1.6-0.9,1.9l0,0c-0.2,0.1-0.3,0.1-0.5,0.1l0,0C273.7,90.8,273.1,90.4,272.9,89.8z
		 M118.4,87.6c-0.8-0.3-1.2-1.1-0.9-1.9l0,0c0.3-0.8,1.1-1.2,1.9-0.9l0,0c0.8,0.3,1.2,1.1,0.9,1.9l0,0c-0.2,0.6-0.8,1-1.4,1l0,0
		C118.8,87.6,118.6,87.6,118.4,87.6z M270.8,84.2c-0.3-0.8,0.1-1.6,0.9-1.9l0,0c0.8-0.3,1.7,0.1,1.9,0.9l0,0l0,0l0,0
		c0.3,0.8-0.1,1.6-0.9,1.9l0,0c-0.2,0.1-0.4,0.1-0.5,0.1l0,0C271.6,85.2,271.1,84.8,270.8,84.2z M120.5,81.9
		c-0.8-0.3-1.2-1.2-0.9-1.9l0,0c0.3-0.8,1.2-1.2,1.9-0.9l0,0c0.8,0.3,1.2,1.2,0.9,1.9l0,0c-0.2,0.6-0.8,1-1.4,1l0,0
		C120.9,82,120.7,82,120.5,81.9z M268.7,78.6L268.7,78.6c-0.3-0.8,0.1-1.5,0.9-1.8l0,0c0.8-0.3,1.6,0,1.9,1l0,0c0,0,0,0,0,0l0,0
		c0.3,0-0.1,1.5-0.8,1.8l0,0c-0.2,0.1-0.4,0-0.5,0l0,0C269.5,79.7,269,79.2,268.7,78.6z M122.7,76.3c-0.8-0.3-1.1-1.2-0.8-2l0,0
		c0.3-0.8,1.2-1.1,2-0.8l0,0c0.8,0.3,1.1,1.2,0.8,1.9l0,0c-0.2,0.6-0.8,0.9-1.4,0.9l0,0C123,76.4,122.9,76.4,122.7,76.3z
		 M266.5,73.1L266.5,73.1c-0.3-0.8,0-1.6,0.8-2l0,0c0.8-0.3,1.6,0,2,0.8l0,0l0,0l0,0c0.3,0.8,0,1.6-0.8,2l0,0
		c-0.2,0.1-0.4,0.1-0.6,0.1l0,0C267.3,74,266.7,73.7,266.5,73.1z M125,70.8c-0.8-0.3-1.1-1.2-0.8-2l0,0c0.3-0.8,1.2-1.1,2-0.8l0,0
		c0.8,0.3,0.8,1.2,0.8,2v0c0,0.6-0.8,0.9-1.4,0.9l0,0C125.4,70.9,125.2,70.9,125,70.8z M264.1,67.6c-0.3-0.8,0-1.6,0.8-2l0,0
		c0.8-0.3,1.6,0,2,0.8l0,0c0.3,0.8,0,1.6-0.8,2l0,0c-0.2,0.1-0.4,0.1-0.6,0.1l0,0C264.9,68.5,264.4,68.2,264.1,67.6z M127.4,65.3
		c-0.8-0.4-1.1-1.2-0.7-2l0,0l0,0l0,0c0.3-0.8,1.2-1.1,2-0.7l0,0c0.8,0.4,1.1,1.2,0.7,2l0,0c-0.3,0.6-0.8,0.9-1.4,0.9l0,0
		C127.8,65.4,127.6,65.4,127.4,65.3z M261.6,62.2c-0.3-0.8,0-1.6,0.7-2l0,0c0.8-0.4,1.6,0,2,0.7l0,0c0.4,0.8,0,1.6-0.7,2l0,0
		c-0.2,0.1-0.4,0.1-0.6,0.1l0,0C262.4,63.1,261.9,62.7,261.6,62.2z M130,59.9c-0.7-0.4-1-1.3-0.7-2l0,0l0,0l0,0c0.4-0.7,1.3-1,2-0.7
		l0,0c0.7,0.4,1,1.3,0.7,2l0,0c-0.3,0.5-0.8,0.8-1.3,0.8l0,0C130.4,60,130.2,60,130,59.9z M259,56.9c-0.4-0.7-0.1-1.6,0.7-2l0,0
		c0.7-0.4,1.6-0.1,2,0.6l0,0c0.4,0.7,0.1,1.6-0.7,2l0,0c-0.2,0.1-0.4,0.2-0.7,0.2l0,0C259.8,57.7,259.2,57.4,259,56.9z M132.7,54.5
		c-0.7-0.4-1-1.3-0.6-2l0,0c0.4-0.7,1.3-1,2-0.6l0,0c0.7,0.4,1,1.3,0.6,2l0,0c-0.3,0.5-0.8,0.8-1.3,0.8l0,0
		C133.1,54.7,132.9,54.6,132.7,54.5z M256.2,51.6c-0.4-0.7-0.1-1.8,0.6-2.2l0,0c0.7-0.4,1.6,0.4,2,0.4l0,0c0,0,0,0,0,0l0,0
		c0.4,0,0.1,1.8-0.6,2.2l0,0c-0.2,0.1-0.5,0.3-0.7,0.3l0,0C257,52.3,256.4,52.1,256.2,51.6z M135.5,49.2c-0.7-0.4-1-1.3-0.6-2.1l0,0
		c0.4-0.7,1.3-1,2.1-0.5l0,0c0.7,0.4,1,1.3,0.5,2l0,0c-0.3,0.5-0.8,0.8-1.3,0.8l0,0C136,49.4,135.8,49.4,135.5,49.2z M253.2,46.4
		L253.2,46.4c-0.4-0.7-0.2-1.6,0.5-2.1l0,0c0.7-0.4,1.6-0.2,2.1,0.5l0,0c0.4,0.7,0.2,1.6-0.5,2l0,0c-0.2,0.2-0.5,0.2-0.8,0.2l0,0
		C254,47.2,253.5,46.9,253.2,46.4z M138.6,44.1c-0.7-0.4-0.9-1.4-0.5-2.1l0,0c0.4-0.7,1.4-0.9,2.1-0.5l0,0c0.7,0.4,0.9,1.4,0.5,2.1
		l0,0c-0.3,0.5-0.8,0.7-1.3,0.7l0,0C139.1,44.3,138.8,44.2,138.6,44.1z M250.1,41.4c-0.5-0.7-0.2-1.6,0.5-2.1l0,0
		c0.7-0.4,1.6-0.2,2.1,0.5l0,0l0,0l0,0c0.4,0.7,0.2,1.6-0.5,2.1l0,0c-0.2,0.2-0.5,0.2-0.8,0.2l0,0C250.8,42.1,250.4,41.8,250.1,41.4
		z M141.8,39c-0.7-0.5-0.9-1.4-0.4-2.1l0,0c0.5-0.7,1.4-0.9,2.1-0.4l0,0c0.7,0.5,0.9,1.4,0.4,2.1l0,0c-0.3,0.4-0.8,0.7-1.2,0.7l0,0
		C142.3,39.2,142,39.2,141.8,39z M246.8,36.5L246.8,36.5c-0.5-0.7-0.3-1.6,0.4-2l0,0c0.7-0.5,1.6-0.6,2.1,0.4l0,0c0,0,0,0,0,0l0,0
		c0.5,0,0.3,1.5-0.4,2l0,0c-0.3,0.2-0.6,0.2-0.9,0.2l0,0C247.5,37.1,247.1,36.9,246.8,36.5z M145.2,34.1c-0.7-0.5-0.8-1.4-0.3-2.1
		l0,0c0.5-0.7,1.4-0.8,2.1-0.3l0,0c0.7,0.5,0.8,1.4,0.3,2.1l0,0c-0.3,0.4-0.7,0.6-1.2,0.6l0,0C145.8,34.4,145.5,34.3,145.2,34.1z
		 M243.2,31.7c-0.5-0.7-0.4-1.6,0.3-2.1l0,0c0.6-0.5,1.6-0.4,2.1,0.3l0,0c0.5,0.6,0.4,1.6-0.3,2.1l0,0c-0.3,0.2-0.6,0.3-0.9,0.3l0,0
		C244,32.3,243.5,32.1,243.2,31.7z M148.8,29.3c-0.6-0.5-0.7-1.5-0.2-2.1l0,0c0.5-0.6,1.5-0.7,2.1-0.2l0,0c0.6,0.5,0.7,1.5,0.2,2.1
		l0,0c-0.3,0.4-0.7,0.5-1.2,0.5l0,0C149.4,29.6,149.1,29.5,148.8,29.3z M239.5,27.1c-0.5-0.6-0.5-1.6,0.2-2.1l0,0
		c0.6-0.5,1.6-0.5,2.1,0.2l0,0c0.5,0.6,0.5,1.6-0.2,2.1l0,0c-0.3,0.2-0.6,0.4-1,0.4l0,0C240.2,27.6,239.8,27.4,239.5,27.1z
		 M152.7,24.7c-0.6-0.6-0.7-1.5-0.1-2.1l0,0c0.5-0.6,1.5-0.7,2.1-0.1l0,0c0.6,0.6,0.7,1.5,0.1,2.1l0,0c-0.3,0.3-0.7,0.5-1.1,0.5l0,0
		C153.3,25.1,153,24.9,152.7,24.7z M235.6,22.7c-0.6-0.6-0.6-1.5,0-2.1l0,0c0.6-0.6,1.5-0.6,2.1,0l0,0c0.6,0.6,0.5,1.6,0,2.1l0,0
		c-0.3,0.3-0.7,0.4-1,0.4l0,0C236.2,23.2,235.8,23,235.6,22.7z M156.8,20.3c-0.6-0.6-0.6-1.5,0-2.1l0,0c0.6-0.6,1.5-0.6,2.1,0l0,0
		c0.6,0.6,0.6,1.5,0,2.1l0,0c-0.3,0.3-0.7,0.4-1,0.4l0,0C157.5,20.8,157.1,20.6,156.8,20.3z M231.3,18.6c-0.6-0.6-0.7-1.5-0.1-2.1
		l0,0c0.6-0.6,1.5-0.7,2.1-0.1l0,0c0.6,0.6,0.6,1.5,0.1,2.1l0,0c-0.3,0.3-0.7,0.5-1.1,0.5l0,0C232,19,231.6,18.8,231.3,18.6z
		 M161.1,16.2c-0.5-0.6-0.4-1.6,0.2-2.1l0,0c0.6-0.5,1.5-0.4,2,0.2l0,0c0.5,0.6,0.7,1.6-0.3,2.1v0c0,0.2-0.5,0.4-0.8,0.4l0,0
		C161.7,16.7,161.4,16.6,161.1,16.2z M226.8,14.8c-0.6-0.5-0.8-1.4-0.2-2.1l0,0c0.5-0.7,1.5-0.8,2.1-0.3l0,0
		c0.7,0.5,0.8,1.5,0.3,2.1l0,0c-0.3,0.4-0.7,0.6-1.2,0.6l0,0C227.5,15.1,227.1,15,226.8,14.8z M165.8,12.4c-0.5-0.7-0.3-1.6,0.4-2.1
		l0,0c0.7-0.5,1.6-0.3,2.1,0.4l0,0c0.5,0.7,0.3,1.6-0.4,2.1l0,0c-0.3,0.2-0.6,0.3-0.9,0.3l0,0C166.5,13.1,166.1,12.9,165.8,12.4z
		 M222.1,11.3c-0.7-0.4-0.9-1.4-0.4-2.1l0,0c0.5-0.7,1.4-0.9,2.1-0.4l0,0c0.7,0.4,0.9,1.4,0.4,2.1l0,0c-0.3,0.4-0.8,0.7-1.3,0.7l0,0
		C222.6,11.6,222.3,11.5,222.1,11.3z M170.8,9.1c-0.4-0.7-0.2-1.6,0.5-2.1l0,0l0,0l0,0c0.7-0.4,1.6-0.2,2,0.6l0,0
		c0.4,0.7,0.2,1.6-0.5,2l0,0c-0.2,0.1-0.5,0.2-0.8,0.2l0,0C171.5,9.8,171,9.6,170.8,9.1z M217.1,8.9L217.1,8.9c-0.7-1-1-1.5-0.6-2.2
		l0,0c0.4-0.7,1.3-1.1,2-0.8l0,0c0.7,0.4,1,1.2,0.6,2l0,0c-0.3,0.5-0.8,1-1.3,1l0,0C217.5,8.8,217.3,8.9,217.1,8.9z M176,6.2
		c-0.3-0.8,0-1.6,0.8-2l0,0c0.8-0.3,1.6,0,2,0.8l0,0c0.3,0.8,0,1.6-0.8,2l0,0c-0.2,0.1-0.4,0.1-0.6,0.1l0,0
		C176.8,7.1,176.2,6.8,176,6.2z M211.8,6c-0.8-0.3-1.2-1.2-0.9-1.9l0,0c0.3-0.8,1.2-1.2,1.9-0.9l0,0c0.8,0.3,1.2,1.2,0.9,1.9l0,0
		c-0.2,0.6-0.8,1-1.4,1l0,0C212.1,6.1,211.9,6.1,211.8,6z M181.5,4c-0.2-0.8,0.2-1.6,1-1.9l0,0c0.8-0.2,1.6,0.2,1.9,1l0,0
		c0.2,0.8-0.2,1.6-1,1.9l0,0C183.3,5,183.1,5,183,5l0,0C182.3,5,181.7,4.6,181.5,4z M206.2,4.3c-0.8-0.2-1.3-1-1.1-1.8l0,0
		c0.2-0.8,1-1.3,1.8-1.1l0,0c0.8,0.2,1.3,1,1.1,1.8l0,0c-0.2,0.7-0.8,1.1-1.5,1.1l0,0C206.5,4.3,206.3,4.3,206.2,4.3z M187.3,2.4
		c-0.1-0.8,0.4-1.6,1.2-1.7l0,0c0.8-0.1,1.6,0.4,1.7,1.2l0,0c0.1,0.8-0.4,1.6-1.2,1.7l0,0c-0.1,0-0.2,0-0.2,0l0,0
		C188.1,3.6,187.4,3.1,187.3,2.4z M200.5,3.3c-0.8-0.1-1.4-0.8-1.3-1.6l0,0c0.1-0.8,0.8-1.4,1.7-1.3l0,0l0,0l0,0
		c0.8,0.1,1.4,0.8,1.3,1.6l0,0c-0.1,0.8-0.7,1.3-1.5,1.3l0,0C200.7,3.3,200.6,3.3,200.5,3.3z M193.2,1.5c0-0.8,0.6-1.5,1.5-1.5l0,0
		l0,0l0,0c0.8,0,1.5,0.5,1.5,1.4l0,0c0,0.8-0.6,1.5-1.4,1.5l0,0c0,0,0,0-0.1,0l0,0C193.9,2.9,193.3,2.3,193.2,1.5z"/>
</g>
<g>
	<path fill="#F6B54D" d="M342.8,200.3L342.8,200.3L342.8,200.3c0-0.8,0.6-1.6,1.5-1.6l0,0c0.8,0,1.5,0.7,1.5,1.5l0,0
		c0,0.8-0.6,1.6-1.5,1.6l0,0c0,0,0,0,0,0l0,0C343.5,201.9,342.8,201.1,342.8,200.3z M342.6,194.2c0-0.8,0.6-1.5,1.5-1.5l0,0
		c0.8,0,1.5,0.6,1.5,1.4l0,0c0,0.8-0.6,1.5-1.5,1.5l0,0c0,0,0,0,0,0l0,0C343.3,195.7,342.6,195,342.6,194.2z M342.3,188.3
		c0-0.8,0.6-1.6,1.4-1.6l0,0c0.8,0,1.5,0.7,1.6,1.5l0,0c0,0.8-0.6,1.6-1.4,1.6l0,0c0,0,0,0-0.1,0l0,0
		C343,189.9,342.4,189.1,342.3,188.3z M342,182.4L342,182.4L342,182.4c-0.1-0.8,0.6-1.7,1.4-1.7l0,0c0.8,0,1.5,0.2,1.6,1.2h0
		c0,1-0.6,2-1.4,2l0,0c0,0-0.1,0-0.1,0l0,0C342.7,183.9,342.1,183.2,342,182.4z M298.9,178.9c-0.8,0-1.4-0.6-1.4-1.5l0,0
		c0-0.8,0.8-1.4,1.6-1.3l0,0c0.8,0.1,1.5,0.7,1.4,1.5l0,0c0,0.8-0.7,1.3-1.5,1.3l0,0C299,178.9,298.9,178.9,298.9,178.9z
		 M341.7,176.3L341.7,176.3L341.7,176.3c-0.1-0.8,0.6-1.5,1.4-1.6l0,0c0.8-0.1,1.5,0.6,1.6,1.4l0,0c0.1,0.8-0.6,1.5-1.4,1.6l0,0
		c0,0-0.1,0-0.1,0l0,0C342.4,177.7,341.7,177.1,341.7,176.3z M299.3,172.9c-0.8,0-1.5-0.7-1.4-1.5l0,0c0.1-0.8,0.8-1.4,1.6-1.3l0,0
		c0.8,0.1,1.4,0.7,1.4,1.5l0,0c-0.1,0.8-0.7,1.3-1.5,1.3l0,0C299.4,172.9,299.4,172.9,299.3,172.9z M341.2,170.3
		c-0.1-0.8,0.4-1.5,1.3-1.6l0,0c0.8-0.1,1.5,0.5,1.5,1.4v0c0,0.8-0.5,1.6-1.3,1.6l0,0c0,0,0,0-0.1,0l0,0
		C341.9,171.7,341.3,171.1,341.2,170.3z M299.8,166.9c-0.8,0-1.4-0.7-1.3-1.5l0,0c0.1-0.8,0.8-1.4,1.6-1.3l0,0
		c0.8,0.1,1.4,0.7,1.4,1.5l0,0c-0.1,0.8-0.7,1.3-1.5,1.3l0,0C299.9,166.9,299.9,166.9,299.8,166.9z M340.7,164.4L340.7,164.4
		L340.7,164.4c-0.1-0.8,0.5-1.6,1.3-1.7l0,0c0.8-0.1,1.6,0.6,1.6,1.4l0,0c0.1,0.8-0.5,1.7-1.3,1.7l0,0c0,0-0.1,0-0.2,0l0,0
		C341.4,165.9,340.7,165.2,340.7,164.4z M300.4,161.2c-0.8-0.1-1.4-0.8-1.3-1.7l0,0c0.1-0.8,0.8-1.4,1.7-1.3l0,0
		c0.8,0.1,1.4,0.8,1.3,1.7l0,0c-0.1,0.8-0.7,1.3-1.5,1.3l0,0C300.5,161.2,300.5,161.2,300.4,161.2z M340,158.4
		c-0.1-0.8,0.5-1.6,1.3-1.7l0,0c0.8-0.1,1.6,0.5,1.6,1.3l0,0c0.1,0.8-0.5,1.6-1.3,1.7l0,0c-0.1,0-0.1,0-0.2,0l0,0
		C340.8,159.8,340.1,159.2,340,158.4z M301.1,155.2c-0.8-0.1-1.4-0.8-1.3-1.7l0,0c0.1-0.8,0.9-1.4,1.7-1.3l0,0
		c0.8,0.1,1.4,0.9,1.3,1.7l0,0l0,0l0,0c-0.1,0.8-0.7,1.3-1.5,1.3l0,0C301.2,155.2,301.1,155.2,301.1,155.2z M339.3,152.5
		c-0.1-0.8,0.5-1.6,1.3-1.7l0,0c0.8-0.1,1.6,0.5,1.7,1.3l0,0c0.1,0.8-0.5,1.6-1.3,1.7l0,0c-0.1,0-0.1,0-0.2,0l0,0
		C340.1,153.8,339.4,153.3,339.3,152.5z M301.8,149.3c-0.8-0.1-1.4-0.9-1.3-1.7l0,0c0.1-0.8,0.9-1.4,1.7-1.3l0,0
		c0.8,0.1,1.4,0.9,1.3,1.7l0,0c-0.1,0.7-0.8,1.3-1.5,1.3l0,0C302,149.3,301.9,149.3,301.8,149.3z M338.5,146.6
		c-0.1-0.8,0.5-1.6,1.3-1.7l0,0c0.8-0.1,1.6,0.4,1.7,1.3l0,0c0.1,0.8-0.5,1.6-1.3,1.7l0,0c-0.1,0-0.1,0-0.2,0l0,0
		C339.2,147.9,338.6,147.3,338.5,146.6z M302.7,143.3c-0.8-0.1-1.4-0.9-1.2-1.7l0,0c0.1-0.8,0.9-1.4,1.7-1.2l0,0
		c0.8,0.1,1.4,0.9,1.2,1.7l0,0c-0.1,0.7-0.8,1.3-1.5,1.3l0,0C302.9,143.3,302.8,143.3,302.7,143.3z M337.6,140.7
		c-0.1-0.8,0.4-1.6,1.2-1.7l0,0c0.8-0.1,1.6,0.4,1.7,1.2l0,0c0.1,0.8-0.4,1.6-1.2,1.7l0,0c-0.1,0-0.2,0-0.2,0l0,0
		C338.3,141.9,337.7,141.4,337.6,140.7z M303.7,137.4c-0.8-0.2-1.4-0.9-1.2-1.8l0,0c0.2-0.8,0.9-1.4,1.8-1.2l0,0
		c0.8,0.1,1.4,0.9,1.2,1.8l0,0c-0.1,0.7-0.8,1.2-1.5,1.2l0,0C303.9,137.4,303.8,137.4,303.7,137.4z M336.5,134.8
		c-0.2-0.8,0.1-1.6,1-1.8l0,0c0.8-0.2,1.5,0.4,1.5,1.2v0c1,0.8-0.1,1.6-1,1.8l0,0c-0.1,0-0.1,0-0.2,0l0,0
		C337.2,136,336.7,135.5,336.5,134.8z M305,131.5c-0.8-0.2-1-1-1-1.8v0c0-0.8,0.8-1.3,1.6-1.2l0,0c0.8,0.2,1.2,1,1.1,1.8l0,0l0,0
		l0,0c-0.2,0.7-0.7,1.2-1.4,1.2l0,0C305.2,131.5,305.1,131.5,305,131.5z M335.3,129c-0.2-0.8,0.3-1.6,1.1-1.8l0,0
		c0.8-0.2,1.6,0.3,1.8,1.1l0,0c0.2,0.8-0.3,1.6-1.1,1.8l0,0c-0.1,0-0.2,0-0.3,0l0,0C336.1,130.1,335.5,129.7,335.3,129z
		 M306.2,125.6c-0.8-0.2-1.3-1-1.1-1.8l0,0c0.2-0.8,1-1.3,1.8-1.1l0,0c0.8,0.2,1.3,1,1.1,1.8l0,0c-0.2,0.7-0.8,1.1-1.4,1.1l0,0
		C306.4,125.7,306.3,125.7,306.2,125.6z M333.9,123.2c-0.2-0.8,0.3-1.6,1.1-1.8l0,0c0.8-0.2,1.6,0.3,1.8,1.1l0,0
		c0.2,0.8-0.3,1.6-1.1,1.8l0,0c-0.1,0-0.3,0.1-0.4,0.1l0,0C334.7,124.3,334.1,123.9,333.9,123.2z M307.7,119.8
		c-0.8-0.2-1.2-1.1-1-1.9l0,0c0.2-0.8,1.1-1.2,1.9-1l0,0c0.8,0.2,1.2,1.1,1,1.9l0,0c-0.2,0.6-0.8,1.1-1.4,1.1l0,0
		C308,119.9,307.8,119.9,307.7,119.8z M332.3,117.5c-0.2-0.8,0.2-1.6,1-1.9l0,0c0.8-0.2,1.6,0.2,1.9,1l0,0c0.2,0.8-0.2,1.6-1,1.9
		l0,0c-0.2,0.1-0.3,0.1-0.5,0.1l0,0C333.1,118.5,332.5,118.1,332.3,117.5z M309.5,114.1c-0.8-0.3-1.2-1.1-0.9-1.9l0,0
		c0.3-0.8,1.1-1.2,1.9-0.9l0,0c0.8,0.3,1.2,1.2,0.9,1.9l0,0c-0.2,0.6-0.8,1-1.4,1l0,0C309.8,114.2,309.7,114.2,309.5,114.1z
		 M330.3,111.9c-0.3-0.8,0-1.6,0.8-1.9l0,0c0.8-0.3,1.9,0.1,1.9,0.9v0c0,0.8,0,1.6-0.8,2l0,0c-0.2,0.1-0.3,0.1-0.5,0.1l0,0
		C331.1,112.9,330.5,112.5,330.3,111.9z M311.7,108.5c-0.7-0.4-1-1.3-0.7-2l0,0c0.4-0.7,1.3-1,2-0.7l0,0c0.7,0.4,1,1.3,0.7,2l0,0
		c-0.3,0.5-0.8,0.8-1.3,0.8l0,0C312.2,108.7,311.9,108.7,311.7,108.5z M327.9,106.7c-0.4-0.7-0.1-1.6,0.6-2l0,0
		c0.7-0.4,1.6-0.1,2,0.6l0,0c0.4,0.7,0.1,1.6-0.6,2l0,0c-0.2,0.1-0.5,0.2-0.7,0.2l0,0C328.7,107.4,328.2,107.2,327.9,106.7z
		 M314.6,103.3c-0.6-0.5-0.7-1.5-0.2-2.1l0,0c0.5-0.6,1.5-0.7,2.1-0.2l0,0c0.6,0.5,0.7,1.5,0.2,2.1l0,0c-0.3,0.4-0.7,0.5-1.1,0.5
		l0,0C315.2,103.6,314.9,103.5,314.6,103.3z M324.7,102.2c-0.6-0.6-0.6-1.5,0-2.1l0,0c0.6-0.6,1.5-0.6,2.1,0l0,0
		c0.6,0.6,0.6,1.5,0,2.1l0,0c-0.3,0.3-0.7,0.4-1.1,0.4l0,0C325.3,102.6,325,102.4,324.7,102.2z M318.9,99.1
		c-0.1-0.8,0.4-1.6,1.3-1.7l0,0c0.8-0.1,1.6,0.4,1.7,1.3l0,0c0.1,0.8-0.4,1.6-1.3,1.7l0,0c-0.1,0-0.1,0-0.2,0l0,0
		C319.7,100.4,319,99.9,318.9,99.1z"/>
</g>
</svg>
